# xmcd
#
# Track frame offsets: 
#        150
#        12107
#        23221
#        34737
#        46208
#        56075
#        75271
#        85717
#        95823
#        109578
#        120655
#        134227
#        142364
#        153738
#        166348
#        177648
#        188745
#        199002
#        209451
#        221385
#        231807
#        243608
#        256212
#
# Disc length: 3572 seconds
#
# Revision: 0
# Processed by: cddbd v1.5.2PL0 Copyright (c) Steve Scherf et al.
# Submitted via: ExactAudioCopy v1.1
#
DISCID=4a0df217
DTITLE=Various Artist - R&B AND CLASSIC SOUL Vol 2
DYEAR=1962
DGENRE=Soul
TTITLE0=Jimmy Rogers - What Have I Done
TTITLE1=Little Willie John - I'm Shakin'
TTITLE2=Little Milton - Losing Hand
TTITLE3=Otis Rush - Homework
TTITLE4=Jeannie S. Allen - I Really Love You
TTITLE5=Phil Upchurch Combo - You Can't Sit Down Part 1
TTITLE6=Little Esther - Cherry Wine
TTITLE7=Dakota Stanton - A Little You
TTITLE8=Lightnin' Slim - Mean Ole Lonesome Train
TTITLE9=Sally Stanley - I'll Have To Let You Go
TTITLE10=Cile Turner - Crap Shootin' Sinner
TTITLE11=Paul Perryman - Keep A'Calling
TTITLE12=Ruth Brown - Sweet Baby Of Mine
TTITLE13=Milton Trenier - Gonna Catch Me A Rat
TTITLE14=Bobby Adams - What A Mess
TTITLE15=Mitty Collier - Don't Let Her Take My Baby
TTITLE16=Johnny and Joe - I Want You Here Beside Me
TTITLE17=Calvin and Clarence - I Wanna Dance(But I Don't Know How)
TTITLE18=Clentt Gant - Just Like you Like it
TTITLE19=Ben E. King - Young Boy Blues
TTITLE20=The Miracles - I'll Try Something New
TTITLE21=Ramona King - Oriental Garden
TTITLE22=Spirit Of Memphis - Lost In Sin
EXTD=
EXTT0=
EXTT1=
EXTT2=
EXTT3=
EXTT4=
EXTT5=
EXTT6=
EXTT7=
EXTT8=
EXTT9=
EXTT10=
EXTT11=
EXTT12=
EXTT13=
EXTT14=
EXTT15=
EXTT16=
EXTT17=
EXTT18=
EXTT19=
EXTT20=
EXTT21=
EXTT22=
PLAYORDER=
